<?xml version="1.0" standalone="no"?>
<!DOCTYPE svg PUBLIC "-//W3C//DTD SVG 1.1//EN" "http://www.w3.org/Graphics/SVG/1.1/DTD/svg11.dtd" >
<svg xmlns="http://www.w3.org/2000/svg">
<metadata>Generated by IcoMoon</metadata>
<defs>
<font id="icomoon" horiz-adv-x="1024">
<font-face units-per-em="1024" ascent="960" descent="-64" />
<missing-glyph horiz-adv-x="1024" />
<glyph unicode="&#x20;" d="" horiz-adv-x="512" />
<glyph unicode="&#xe600;" d="M85.333 853.334h853.333v-853.333h-853.333v853.333z" />
<glyph unicode="&#xe601;" d="M938.667 422.998c0 25.045-46.592 50.219-46.592 50.219l-727.936 401.664c0 0-44.459 28.8-61.824 19.115-18.133-9.984-16.939-51.797-16.939-51.797v-824.32c0 0-2.176-45.184 19.115-56.96 19.925-11.051 60.459 6.827 60.459 6.827l725.632 404.267c0 0 48.085 25.557 48.085 50.987z" />
<glyph unicode="&#xe602;" d="M85.333 874.667h256v-853.333h-256v853.333zM682.667 874.667h256v-853.333h-256v853.333z" />
<glyph unicode="&#xe603;" d="M512 832c-282.752 0-512-379.008-512-379.008s229.248-388.992 512-388.992 512 388.992 512 388.992-229.248 379.008-512 379.008zM512 192c-141.355 0-256 114.645-256 256 0 141.312 114.645 256 256 256s256-114.688 256-256c0-141.355-114.645-256-256-256zM384 448c0-70.656 57.301-128 128-128s128 57.344 128 128-57.301 128-128 128-128-57.344-128-128z" />
<glyph unicode="&#xe604;" d="M734.208 362.837c0 0 44.971 70.784 60.629 168.875 45.995 16.939 61.995 134.187 17.749 143.573 1.707 38.485-8.832 186.027-126.976 234.453-20.053 8.235-31.787 12.331-39.68 10.795 66.987-45.312 79.317-191.488 54.869-238.549 42.283-36.736 28.032-146.731-14.336-146.731 12.245-56.192-74.325-194.432-74.325-194.432s6.656-30.848 21.12-33.451c68.053-11.563 286.848-204.587 281.984-371.371h108.757c0 79.104-66.944 208.469-144.896 300.587-65.92 77.995-144.896 126.251-144.896 126.251zM535.595 270.805c-24.533 4.139-25.131 73.088-25.131 73.088s72.192 73.301 87.936 171.349c42.325 0 68.437 104.448 26.112 141.099 1.792 38.741 54.443 303.659-212.053 303.659-266.453 0-213.845-264.917-212.096-303.701-42.283-36.608-16.171-141.099 26.069-141.099 15.787-98.048 87.979-171.349 87.979-171.349s-0.64-68.949-25.131-73.088c-79.061-12.672-289.28-188.672-289.28-334.763h824.917c0 146.091-210.133 322.091-289.323 334.805z" />
<glyph unicode="&#xe605;" d="M711.595 311.851c-50.731 51.755 12.629 84.437 13.739 210.816 1.408 159.104-128.896 288-288 288s-288-128.896-288-288 128.981-283.563 288-288.043c127.445-3.584 163.968 65.579 210.773 13.653l112.128-139.179c26.453-29.397 69.76-31.915 96.128-5.547 26.411 26.411 23.936 69.632-5.504 96.171l-139.264 112.128zM437.333 330.667c-106.069 0-192 86.016-192 192 0 106.027 85.931 192 192 192s192-85.973 192-192c0-105.984-85.931-192-192-192z" />
<glyph unicode="&#xe606;" d="M853.333 960h-682.667c-93.824 0-170.667-76.843-170.667-170.667v-682.667c0-93.909 76.843-170.667 170.667-170.667h682.667c93.909 0 170.667 76.757 170.667 170.667v682.667c0 93.824-76.757 170.667-170.667 170.667zM856.363 103.637c-26.368-26.368-69.675-23.893-96.128 5.547l-112.128 139.136c-46.848 51.925-83.328-17.237-210.773-13.653-159.019 4.48-288 128.896-288 288s128.896 288 288 288 289.408-128.896 288-288c-1.109-126.421-64.512-159.104-13.739-210.773l139.307-112.085c29.397-26.539 31.872-69.76 5.461-96.171zM629.333 522.667c0-106.039-85.961-192-192-192s-192 85.961-192 192c0 106.039 85.961 192 192 192 106.039 0 192-85.961 192-192z" />
<glyph unicode="&#xe607;" d="M768 445.355c0-24.747-27.861-49.365-27.861-49.365l-401.28-361.856c0 0-26.411-23.083-60.245-7.253-22.613 10.752-22.528 45.141-22.528 45.141v748.459c0 0-3.456 41.685 28.587 52.352 29.141 9.685 63.915-21.845 63.915-21.845l390.443-355.328c0 0 28.971-25.344 28.971-50.304z" />
<glyph unicode="&#xe608;" d="M46.848 496.853c119.168 204.416 447.019 201.173 447.019 201.173h88.235v176.64l441.899-324.011-441.899-323.755v205.995h-49.195c0 0-249.344 40.235-382.592-94.165-77.568-78.379-89.045-317.397-89.045-317.397s-127.701 280.917-14.421 475.52z" />
<glyph unicode="&#xe609;" d="M416 480.853h-254.165c2.731 49.024 9.515 113.28 26.24 147.669 47.147 96.64 195.925 82.048 195.925 82.048v164.096c0 0-95.232-4.181-139.392-10.667-105.515-15.488-244.608-98.645-244.608-276.437 0-34.261 0-44.032 0-46.421v-486.997c0-18.091 14.293-32.811 32-32.811h384c17.664 0 32 14.72 32 32.853v393.813c0 18.133-14.336 32.853-32 32.853zM992 480.853h-254.165c2.731 49.024 9.515 113.28 26.24 147.669 47.147 96.64 195.925 82.048 195.925 82.048v164.096c0 0-95.232-4.181-139.392-10.667-105.515-15.488-244.608-98.645-244.608-276.437 0-34.261 0-44.032 0-46.421v-486.997c0-18.133 14.293-32.853 32-32.853h384c17.664 0 32 14.72 32 32.853v393.856c0 18.133-14.336 32.853-32 32.853z" />
<glyph unicode="&#xe60a;" d="M512 960c-282.837 0-512-229.163-512-512s229.163-512 512-512 512 229.163 512 512-229.163 512-512 512zM768 362.667h-170.667v-170.667h-170.667v170.667h-170.667v170.667h170.667v170.667h170.667v-170.667h170.667v-170.667z" />
<glyph unicode="&#xe60b;" d="M341.333 362.667h-170.667v170.667h170.667v-170.667zM597.333 362.667h-170.667v170.667h170.667v-170.667zM853.333 362.667h-170.667v170.667h170.667v-170.667z" />
<glyph unicode="&#xe60c;" d="M512 960c-282.837 0-512-229.163-512-512s229.163-512 512-512 512 229.163 512 512-229.163 512-512 512zM725.333 362.667h-426.667v170.667h426.667v-170.667z" />
<glyph unicode="&#xe60d;" d="M85.333 874.667h853.333v-170.667h-853.333v170.667zM85.333 533.333h853.333v-170.667h-853.333v170.667zM85.333 192h853.333v-170.667h-853.333v170.667z" />
<glyph unicode="&#xe60e;" d="M509.867-64c0 0-339.2 450.005-339.2 642.005 0 378.027 339.2 381.995 339.2 381.995s343.467-3.968 343.467-379.989c0-198.016-343.467-644.011-343.467-644.011zM512 768c-70.656 0-128-57.301-128-128 0-70.656 57.344-128 128-128s128 57.344 128 128c0 70.699-57.344 128-128 128z" />
<glyph unicode="&#xe60f;" d="M85.333 874.667h341.333v-341.333h-341.333v341.333zM597.333 874.667h341.333v-341.333h-341.333v341.333zM85.333 362.667h341.333v-341.333h-341.333v341.333zM597.333 362.667h341.333v-341.333h-341.333v341.333z" />
<glyph unicode="&#xe610;" d="M853.333 960h-682.667c-93.824 0-170.667-76.843-170.667-170.667v-682.667c0-93.909 76.843-170.667 170.667-170.667h682.667c93.909 0 170.667 76.757 170.667 170.667v682.667c0 93.824-76.757 170.667-170.667 170.667zM719.275 352.256c-8.448-8.277-19.456-12.416-30.464-12.416-11.307 0-22.571 4.395-31.104 13.099l-102.187 104.448v-274.688c0-24.021-19.499-43.563-43.52-43.563-24.064 0-43.563 19.499-43.563 43.563v279.296l-106.752-109.056c-8.533-8.704-19.84-13.099-31.104-13.099-11.008 0-21.973 4.139-30.464 12.416-17.152 16.811-17.451 44.373-0.64 61.525l176.853 180.736c9.088 9.259 21.333 13.44 33.365 12.843 0.768 0.043 1.493 0.256 2.304 0.256 0.043 0 0.128-0.043 0.213-0.043 2.773-0.043 5.632-0.299 8.363-0.853 0.256-0.085 0.512-0.171 0.811-0.213 2.56-0.597 5.035-1.323 7.509-2.347 1.579-0.683 3.029-1.621 4.523-2.517 1.28-0.725 2.603-1.408 3.797-2.304 2.048-1.451 3.968-2.987 5.717-4.736 0.043-0.043 0.128-0.085 0.171-0.128l176.896-180.736c16.811-17.109 16.469-44.715-0.725-61.483zM702.72 661.333h-381.44c-24.064 0-43.52 18.133-43.52 42.155s19.456 43.179 43.477 43.179h380.288c24.021 0 44.715-18.261 44.715-42.283 0-24.021-19.541-43.051-43.52-43.051z" />
<glyph unicode="&#xe611;" d="M511.36 559.957c-61.696 0-111.957-50.133-111.957-111.957s50.261-112.085 111.957-112.085c61.867 0 112 50.261 112 112.085s-50.091 111.957-112 111.957zM853.333 960h-682.667c-93.824 0-170.667-76.843-170.667-170.667v-682.667c0-93.909 76.843-170.667 170.667-170.667h682.667c93.909 0 170.667 76.757 170.667 170.667v682.667c0 93.824-76.757 170.667-170.667 170.667zM810.667 411.221l-89.344-38.059c-2.56-6.997-4.949-13.653-8.107-20.395l36.693-89.131-52.736-52.907-89.6 36.011c-6.613-3.328-13.611-6.016-20.651-8.576l-37.12-88.832h-74.539l-37.76 88.235c-7.509 2.603-14.677 5.419-21.803 8.747l-88.107-36.352-52.779 52.864 35.499 88.576c-3.499 7.083-6.357 14.464-9.216 22.101l-87.765 36.523v74.667l87.808 37.547c2.688 7.68 5.504 15.019 9.088 22.187l-36.267 88.064 52.821 52.736 88.661-35.755c7.083 3.413 14.251 6.187 21.675 8.917l36.949 88.277h74.624l37.888-88.661c7.168-2.645 14.037-5.291 20.821-8.619l88.875 36.608 52.821-52.907-36.053-89.6c3.285-6.571 5.76-13.397 8.277-20.437l89.344-37.12v-74.709z" />
<glyph unicode="&#xe612;" d="M853.333 960h-682.667c-93.824 0-170.667-76.843-170.667-170.667v-682.667c0-93.909 76.843-170.667 170.667-170.667h682.667c93.909 0 170.667 76.757 170.667 170.667v682.667c0 93.824-76.757 170.667-170.667 170.667zM591.232 177.067c0-22.229-18.091-40.277-40.32-40.277h-75.819c-22.229 0-40.32 18.091-40.32 40.277v75.861c0 22.229 18.091 40.277 40.32 40.277h75.819c22.229 0 40.32-18.091 40.32-40.277v-75.861zM619.435 422.955c-34.133-25.216-45.44-35.883-45.44-49.621v-46.933h-118.528v46.933c0 75.733 54.059 115.755 93.483 144.939 39.509 29.227 55.552 43.819 55.467 71.296-0.171 38.912-48.811 59.947-94.507 59.947-21.291-0.085-114.048-4.651-114.048-93.227v-21.333h-118.528v21.333c0 145.152 119.040 211.499 229.632 211.669 107.221 0 215.509-61.141 215.979-177.92 0.256-90.411-62.208-136.533-103.509-167.083z" />
<glyph unicode="&#xe613;" d="M612.139 610.603c0 36.523-27.989 66.304-62.421 66.304h-75.435c-34.432 0-62.421-29.739-62.421-66.304v-119.936h200.235v119.936zM853.333 960h-682.667c-93.824 0-170.667-76.843-170.667-170.667v-682.667c0-93.909 76.843-170.667 170.667-170.667h682.667c93.909 0 170.667 76.757 170.667 170.667v682.667c0 93.824-76.757 170.667-170.667 170.667zM728.875 188.16c0-21.461-15.744-38.827-35.2-38.827h-359.808c-19.413 0-35.2 17.365-35.2 38.827v263.68c0 21.461 15.787 38.827 35.2 38.827h12.203v119.936c0 75.051 57.6 136.064 128.213 136.064h75.435c70.656 0 128.213-61.013 128.213-136.064v-119.936h15.744c19.456 0 35.2-17.365 35.2-38.827v-263.68z" />
<glyph unicode="&#xe614;" d="M512 960c-282.837 0-512-229.163-512-512s229.163-512 512-512 512 229.163 512 512-229.163 512-512 512zM773.675 548.267l-325.675-325.589c-9.344-9.259-18.688-7.68-26.411 0.085l-171.179 171.349c-5.589 5.333-5.419 14.763 2.091 22.4l80.981 81.408c7.936 7.851 14.165 10.923 23.851 1.067l77.568-77.312 229.76 229.675c6.101 6.101 17.749 6.741 25.088-0.683l81.067-79.829c7.509-7.509 8.917-16.427 2.859-22.571z" />
<glyph unicode="&#xe615;" d="M615.424 352.384c17.109 10.923 29.653 22.229 37.675 33.92 10.624 15.659 15.915 32.64 15.915 50.688 0 31.104-13.312 56.789-40.021 77.269-26.752 20.395-68.011 30.677-123.861 30.677-42.155 0-76.032-8.277-101.717-24.661-32.896-21.333-49.28-48.896-49.28-82.432 0-20.437 5.675-38.528 17.067-54.229 8.363-11.563 21.632-21.973 39.893-31.189-23.723-8.96-41.344-21.632-52.693-38.016-11.349-16.299-17.067-36.224-17.067-59.819 0-24.064 6.059-45.952 18.219-65.451 12.16-19.499 29.952-34.304 53.291-44.288 23.381-10.069 57.216-15.104 101.461-15.104 23.552 0 45.739 2.219 66.56 6.656 20.779 4.437 38.187 11.435 52.096 20.907 13.995 9.557 25.813 22.997 35.328 40.405 9.6 17.493 14.379 36.267 14.379 56.277 0 20.864-5.504 39.808-16.683 57.045-11.051 17.067-27.989 30.891-50.56 41.344zM476.501 464.213c8.875 8.491 20.309 12.8 34.389 12.8 13.867 0 25.216-4.437 34.176-13.056 8.917-8.704 13.44-19.968 13.44-33.835 0-13.355-4.309-24.149-12.843-32.597s-19.456-12.629-32.811-12.629c-15.019 0-27.008 4.309-36.011 12.757-9.003 8.491-13.525 19.669-13.525 33.536-0.043 13.568 4.352 24.576 13.184 33.024zM549.589 215.253c-11.008-11.392-23.381-17.024-37.333-17.024-14.421 0-27.221 5.547-38.485 16.853-11.179 11.221-16.768 25.685-16.768 43.392 0 18.688 5.333 33.408 16.085 44.416 10.752 10.923 23.296 16.427 37.76 16.427 14.592 0 27.477-5.76 38.571-17.024 11.136-11.307 16.725-25.771 16.725-43.477 0.043-17.707-5.547-32.128-16.555-43.563zM950.187 832h-96.853v-15.915c0-38.528-39.083-69.419-79.957-69.419h-45.824c-40.875 0-87.552 32-87.552 70.528v14.805h-256v-11.349c0-50.005-37.803-73.984-78.677-73.984h-45.995c-40.875 0-88.661 16-88.661 72.661v12.672h-96.384c-32.683 0-74.283-28.501-74.283-65.536v-723.755c0-63.061 43.819-106.709 96-106.709h819.371c73.088 0 108.629 43.648 108.629 108.885v721.579c0 37.035-40.064 65.536-73.813 65.536zM896 104.235c0-28.331-13.013-40.235-42.667-40.235h-682.667c-20.437 0-42.667 10.88-42.667 40.235v467.669c0 29.611 17.067 46.763 48.256 46.763h673.408c30.677 0 46.336-20.309 46.336-46.763v-467.669zM260.736 789.333h33.195c26.155 0 47.403 17.835 47.403 39.808v91.008c0 22.016-21.248 39.851-47.403 39.851h-33.195c-26.155 0-47.403-17.835-47.403-39.851v-91.051c0-21.931 21.248-39.765 47.403-39.765zM729.984 789.333h33.323c26.155 0 47.36 17.835 47.36 39.808v91.008c0 22.016-21.205 39.851-47.317 39.851h-33.323c-26.197 0-47.36-17.835-47.36-39.851v-91.051c0-21.931 21.163-39.765 47.317-39.765z" />
<glyph unicode="&#xe616;" d="M955.008 192c43.861 75.392 68.992 162.517 68.992 256 0 282.752-229.248 512-512 512s-512-229.248-512-512 229.248-512 512-512c141.355 0 269.355 57.259 361.984 150.016l-90.624 90.624c-69.504-69.632-165.504-112.64-271.36-112.64-211.755 0-384 172.245-384 384s172.245 384 384 384 384-172.245 384-384c0-45.483-8.747-89.003-23.381-129.493l-0.981 1.493h-103.637v382.635h-256c-141.355 0-256-114.645-256-256s114.645-256 256-256c58.752 0 112.256 20.608 155.52 53.888 23.211-31.019 58.709-52.523 100.48-52.523h187.008zM640 511.744v-65.109c0-70.613-57.515-128-128-128s-128 57.387-128 128 57.515 128 128 128h128v-62.891z" />
<glyph unicode="&#xe617;" d="M1002.24 69.419l-417.579 825.771c0 0-29.013 64.811-72.661 64.811-43.605 0-72.619-64.811-72.619-64.811l-417.579-825.771c0 0-39.851-58.24-11.776-101.632 22.144-34.133 100.693-31.744 100.693-31.744h802.603c0 0 78.592-2.389 100.651 31.744 28.117 43.392-11.733 101.632-11.733 101.632zM597.333 64h-170.667v170.667h170.667v-170.667zM597.333 320h-170.667v256h170.667v-256z" />
<glyph unicode="&#xe618;" d="M512 960c-282.837 0-512-229.163-512-512s229.163-512 512-512 512 229.163 512 512-229.163 512-512 512zM587.819 182.485h-151.68v151.723h151.68v-151.723zM587.819 410.069h-151.68v303.445h151.68v-303.445z" />
<glyph unicode="&#xe619;" d="M638.635 240.896c-25.173 4.224-25.771 76.245-25.771 76.245s74.197 76.288 90.453 178.731c43.52 0 70.315 108.928 26.88 147.285 1.749 40.363 55.936 316.843-218.197 316.843s-219.947-276.48-218.112-316.843c-43.52-38.315-16.64-147.285 26.837-147.285 16.213-102.443 90.496-178.731 90.496-178.731s-0.683-72.021-25.813-76.245c-81.493-13.397-385.408-152.405-385.408-304.896h1024c0 152.491-303.915 291.499-385.365 304.896z" />
<glyph unicode="&#xe61a;" d="M981.333 789.333h-252.715l-36.096 134.229c0 0-4.523 23.125-26.283 32.256-9.941 4.181-51.797 4.139-51.797 4.139h-202.923c0 0-32.64 0.768-48.043-4.779-24.363-8.747-32-34.389-32-34.389l-36.096-131.456h-252.715v-128h85.333v-596.608c0-74.283 46.336-128.725 117.845-128.725h534.528c78.933 0 115.627 64.64 115.627 138.88v586.453h85.333v128zM421.76 874.667h180.48l18.091-85.333h-216.661l18.091 85.333zM768 106.667c0-35.712-9.003-42.667-33.493-42.667h-439.168c-23.979 0-39.339-4.779-39.339 37.248v560.085h512v-554.667zM341.333 576h85.333v-426.667h-85.333v426.667zM469.333 576h85.333v-426.667h-85.333v426.667zM597.333 576h85.333v-426.667h-85.333v426.667z" />
<glyph unicode="&#xe61b;" d="M1017.387 417.493c7.979-52.821 13.269-125.141-11.605-152.832-41.173-45.653-301.739-45.653-301.739 45.739 0 46.165 42.837 76.331 1.749 122.069-40.491 45.056-113.067 45.824-193.792 45.824-80.683 0-153.216-0.811-193.707-45.824-41.131-45.739 1.707-75.904 1.707-122.069 0-91.435-260.565-91.435-301.739-45.739-24.875 27.691-19.584 100.011-11.648 152.832 6.144 35.328 21.717 73.387 71.552 121.899v0c74.709 66.432 187.861 120.661 429.867 121.856v0.085c1.28 0 2.645-0.043 3.968-0.043s2.645 0.043 3.968 0.043v-0.043c242.005-1.195 355.115-55.467 429.867-121.856v0c49.835-48.555 65.365-86.613 71.552-121.941z" />
<glyph unicode="&#xe61c;" d="M927.829 960h-288.597c-52.907 0-126.763-30.592-164.181-68.053l-446.976-446.933c-37.419-37.419-37.419-98.645 0-136.021l345.003-344.96c37.333-37.376 98.517-37.376 136.021 0l446.933 447.019c37.376 37.419 67.968 111.317 67.968 164.181v288.555c0 52.949-43.264 96.213-96.171 96.213zM800 640c-52.992 0-96 43.008-96 96s43.008 96 96 96 96.085-43.008 96.085-96-43.093-96-96.085-96z" />
<glyph unicode="&#xe61d;" d="M170.667 874.667h853.333v-853.333h-853.333v853.333zM170.667 874.667l426.667-426.667-426.667-426.667z" />
<glyph unicode="&#xe61e;" d="M0 874.667h853.333v-853.333h-853.333v853.333zM853.333 21.333l-426.667 426.667 426.667 426.667z" />
<glyph unicode="&#xe61f;" d="M847.232 405.333c35.243 0 71.893 6.315 81.493 40.235l92.885 309.632c9.728 33.835-11.093 76.8-46.379 76.8h-676.565c-26.197 72.448-83.029 128-190.635 128h-79.488c0 0-28.544 0-28.544-29.099 0-18.389 0-58.027 0-73.515 0-26.709 25.173-25.387 25.173-25.387h80.171c0 0 30.677-0.299 42.88-8.619 22.443-15.36 22.443-29.611 22.443-29.611v-545.749c0-41.301 13.781-56.021 51.755-56.021h673.579c20.821 0 24.405 5.803 29.995 28.117s14.165 53.803 17.835 71.467c6.699 32.384-13.525 28.416-32.384 28.416h-600.789c0 0-11.989 1.323-11.989 16.683 0 16 0 68.651 0 68.651h548.565zM298.667 704h592.427l-53.077-170.667h-539.349v170.667zM384 42.667c0-58.91-47.756-106.667-106.667-106.667s-106.667 47.756-106.667 106.667c0 58.91 47.756 106.667 106.667 106.667 58.91 0 106.667-47.756 106.667-106.667zM938.667 42.667c0-58.91-47.756-106.667-106.667-106.667s-106.667 47.756-106.667 106.667c0 58.91 47.756 106.667 106.667 106.667 58.91 0 106.667-47.756 106.667-106.667z" />
<glyph unicode="&#xe620;" d="M298.667 704l426.667-255.957-426.667-256.043zM905.899 960h-787.584c-65.664 0-118.315-52.907-118.315-118.229v-787.669c0-65.28 52.651-118.101 118.315-118.101h787.584c65.109 0 118.101 52.821 118.101 118.101v787.669c0 65.323-52.992 118.229-118.101 118.229zM896 114.603c0-33.536-17.323-50.603-50.688-50.603h-666.709c-33.024 0-50.603 17.067-50.603 50.603v666.709c0 33.451 17.579 50.688 50.603 50.688h666.752c33.323 0 50.645-17.237 50.645-50.688v-666.709z" />
<glyph unicode="&#xe621;" d="M213.333 746.667h597.333v-128h-597.333v128zM213.333 533.333h597.333v-128h-597.333v128zM213.333 320h235.819v-128h-235.819v128zM905.899 960h-787.584c-65.664 0-118.315-52.907-118.315-118.229v-787.669c0-65.28 52.651-118.101 118.315-118.101h787.584c65.109 0 118.101 52.821 118.101 118.101v787.669c0 65.323-52.992 118.229-118.101 118.229zM896 114.603c0-33.536-17.323-50.603-50.688-50.603h-666.709c-33.024 0-50.603 17.067-50.603 50.603v666.709c0 33.451 17.579 50.688 50.603 50.688h666.752c33.323 0 50.645-17.237 50.645-50.688v-666.709z" />
<glyph unicode="&#xe622;" d="M371.2 487.424c6.357 9.984 16.555 18.389 30.379 25.131 13.867 6.741 33.621 10.112 59.221 10.112l-51.2 96c-38.4 0-68.011-6.485-88.789-19.499s-36.011-34.517-45.611-64.512c-9.643-29.995-15.189-69.504-16.811-118.485-1.579-49.024-2.389-109.483-2.389-181.504h204.8v192h-102.4c0 8.491 0.512 18.261 1.579 29.269 1.067 10.965 4.821 21.461 11.221 31.488zM678.4 487.424c6.357 9.984 16.512 18.389 30.379 25.131s33.621 10.112 59.221 10.112l-51.2 96c-38.357 0-68.011-6.485-88.789-19.499s-36.011-34.517-45.568-64.512c-9.643-29.995-15.189-69.504-16.853-118.485-1.579-49.024-2.389-109.483-2.389-181.504h204.8v192h-102.4c0 8.491 0.555 18.261 1.621 29.269 1.024 10.965 4.779 21.461 11.179 31.488zM905.899 960h-787.584c-65.664 0-118.315-52.907-118.315-118.229v-787.669c0-65.28 52.651-118.101 118.315-118.101h787.584c65.109 0 118.101 52.821 118.101 118.101v787.669c0 65.323-52.992 118.229-118.101 118.229zM896 114.603c0-33.536-17.323-50.603-50.688-50.603h-666.709c-33.024 0-50.603 17.067-50.603 50.603v666.709c0 33.451 17.579 50.688 50.603 50.688h666.752c33.323 0 50.645-17.237 50.645-50.688v-666.709z" />
<glyph unicode="&#xe623;" d="M905.899 960h-787.584c-65.664 0-118.315-52.907-118.315-118.229v-787.669c0-65.28 52.651-118.101 118.315-118.101h787.584c65.109 0 118.101 52.821 118.101 118.101v787.669c0 65.323-52.992 118.229-118.101 118.229zM896 114.603c0-33.536-17.323-50.603-50.688-50.603h-666.709c-33.024 0-50.603 17.067-50.603 50.603v666.709c0 33.451 17.579 50.688 50.603 50.688h666.752c33.323 0 50.645-17.237 50.645-50.688v-666.709zM213.333 746.667h170.667v-170.667h-170.667v170.667zM426.667 746.667h170.667v-170.667h-170.667v170.667zM640 746.667h170.667v-170.667h-170.667v170.667zM213.333 533.333h170.667v-170.667h-170.667v170.667z" />
<glyph unicode="&#xe624;" d="M718.251 704h-199.168c-27.477 0-49.749-19.072-49.749-42.667v-128h85.333v67.029c0 10.155 9.6 18.304 21.333 18.304h85.333c11.776 0 21.333-8.149 21.333-18.304v-91.435c0-10.112-9.557-18.261-21.333-18.261h-355.584c-27.477 0-49.749-19.072-49.749-42.667v-213.333c0-23.595 22.272-42.667 49.749-42.667h199.168c27.477 0 49.749 19.072 49.749 42.667v128h-85.333v-67.029c0-10.155-9.557-18.304-21.333-18.304h-85.333c-11.733 0-21.333 8.149-21.333 18.304v91.435c0 10.112 9.6 18.261 21.333 18.261h355.584c27.477 0 49.749 19.072 49.749 42.667v213.333c0 23.595-22.272 42.667-49.749 42.667zM905.899 960h-787.584c-65.664 0-118.315-52.907-118.315-118.229v-787.669c0-65.28 52.651-118.101 118.315-118.101h787.584c65.109 0 118.101 52.821 118.101 118.101v787.669c0 65.323-52.992 118.229-118.101 118.229zM896 114.603c0-33.536-17.323-50.603-50.688-50.603h-666.709c-33.024 0-50.603 17.067-50.603 50.603v666.709c0 33.451 17.579 50.688 50.603 50.688h666.752c33.323 0 50.645-17.237 50.645-50.688v-666.709z" />
<glyph unicode="&#xe625;" d="M905.899 960h-787.584c-65.664 0-118.315-52.907-118.315-118.229v-787.669c0-65.28 52.651-118.101 118.315-118.101h787.584c65.109 0 118.101 52.821 118.101 118.101v787.669c0 65.323-52.992 118.229-118.101 118.229zM896 114.603c0-33.536-17.323-50.603-50.688-50.603h-666.709c-33.024 0-50.603 17.067-50.603 50.603v666.709c0 33.451 17.579 50.688 50.603 50.688h666.752c33.323 0 50.645-17.237 50.645-50.688v-666.709zM810.667 234.667h-597.333l134.997 234.667 123.051-85.333 148.608 277.333z" />
<glyph unicode="&#xe626;" d="M417.323 621.312l308.011 104.021v-398.635c0-47.829-43.819-86.656-98.005-86.656-54.144 0-98.005 38.827-98.005 86.656 0 47.915 43.861 86.699 98.005 86.699 15.019 0 29.312-2.987 41.984-8.363v178.475l-196.011-66.176v-260.011c0-47.829-43.861-86.656-98.005-86.656s-97.963 38.827-97.963 86.656 43.861 86.656 98.005 86.656c15.061 0 29.269-2.987 41.984-8.277v285.611zM905.899 960h-787.584c-65.664 0-118.315-52.907-118.315-118.229v-787.669c0-65.28 52.651-118.101 118.315-118.101h787.584c65.109 0 118.101 52.821 118.101 118.101v787.669c0 65.323-52.992 118.229-118.101 118.229zM896 114.603c0-33.536-17.323-50.603-50.688-50.603h-666.709c-33.024 0-50.603 17.067-50.603 50.603v666.709c0 33.451 17.579 50.688 50.603 50.688h666.752c33.323 0 50.645-17.237 50.645-50.688v-666.709z" />
<glyph unicode="&#xe627;" d="M512.597-64c-194.773 0-299.264 170.539-299.264 293.248 0 64 0.043 188.331 1.28 303.915l0.171 234.24c0 77.909 68.139 192.597 212.181 192.597 155.648 0 212.181-101.077 212.181-196.48 0-98.133 0.128-186.709 0.213-272.597 1.195-75.179 1.237-148.224 1.237-220.843 0-107.648-66.688-145.835-128-145.835-46.421 0-123.52 19.456-123.52 152.917l0.256 264.149h93.013l-0.171-264.149c0-65.664 19.029-65.664 30.421-65.664 10.24 0 34.944 0 34.944 58.581 0 72.32 0 144.811-1.237 220.629-0.085 85.888-0.171 174.677-0.171 272.811 0 72.277-40.533 109.269-119.168 109.269-88.747 0-119.083-72.448-119.083-105.344l-0.213-234.24c-1.237-115.797-1.28-239.915-1.28-303.915 0-86.101 71.253-205.995 206.208-205.995 107.819 0 203.563 81.92 203.563 176l1.493 437.845h93.013l-1.451-437.888c0-143.147-136.448-263.253-296.619-263.253z" />
<glyph unicode="&#xe628;" d="M256 445.355c0-24.747 27.861-49.365 27.861-49.365l401.237-361.813c0 0 26.411-23.083 60.203-7.253 22.656 10.752 22.571 45.184 22.571 45.184v748.373c0 0 3.413 41.685-28.629 52.352-29.141 9.685-63.872-21.845-63.872-21.845l-390.443-355.328c0.043 0-28.928-25.344-28.928-50.304z" />
<glyph unicode="&#xe629;" d="M793.941 960h-556.501c-36.864 0-66.773-28.672-66.773-64v-896c0-35.328 29.909-64 66.773-64h556.501c36.907 0 59.392 28.672 59.392 64v896c0 35.328-22.485 64-59.392 64zM512 0c-110.635 0-192.896 86.016-192.896 192s82.261 192 192.896 192 192.896-86.016 192.896-192-82.261-192-192.896-192zM768 480c0-17.707-9.941-32-28.459-32h-455.083c-18.432 0-28.459 14.293-28.459 32v355.541c0 17.707 10.027 39.125 28.459 39.125h455.083c18.517 0 28.459-21.419 28.459-39.125v-355.541zM583.125 192c0-39.281-31.844-71.125-71.125-71.125-39.281 0-71.125 31.844-71.125 71.125 0 39.281 31.844 71.125 71.125 71.125 39.281 0 71.125-31.844 71.125-71.125z" />
<glyph unicode="&#xe62a;" d="M512 960c-282.837 0-512-229.163-512-512s229.163-512 512-512 512 229.163 512 512-229.163 512-512 512zM474.069 732.459c0 10.453 8.448 18.944 18.944 18.944h75.819c10.496 0 18.944-8.491 18.944-18.944v-75.861c0-10.453-8.448-18.944-18.944-18.944h-75.819c-10.496 0-18.944 8.491-18.944 18.944v75.861zM663.723 239.403c0-10.496-8.491-18.944-18.944-18.944h-227.627c-10.453 0-18.944 8.448-18.944 18.944v37.931c0 10.496 8.491 18.944 18.944 18.944h56.917v189.611h-94.805c-10.453 0-18.944 8.491-18.944 18.944v37.973c0 10.453 8.491 18.944 18.944 18.944h189.611c10.496 0 18.944-8.491 18.944-18.944v-246.571h56.917c10.453 0 18.944-8.448 18.944-18.944v-37.888z" />
<glyph unicode="&#xe62b;" d="M512 832c211.755 0 384-172.245 384-384s-172.245-384-384-384-384 172.245-384 384 172.245 384 384 384M512 960c-282.752 0-512-229.248-512-512s229.248-512 512-512 512 229.248 512 512-229.248 512-512 512v0zM685.483 365.483l-109.483 109.653v228.864h-128.768v-255.744c0-19.243 8.917-35.84 22.229-47.744l125.483-125.483 90.539 90.453z" />
<glyph unicode="&#xe62c;" d="M512 960c-282.837 0-512-229.163-512-512s229.163-512 512-512 512 229.163 512 512-229.163 512-512 512zM568.917 182.485c0-10.453-8.491-18.944-18.987-18.944h-75.819c-10.496 0-18.987 8.491-18.987 18.944v75.861c0 10.453 8.491 18.944 18.987 18.944h75.819c10.496 0 18.987-8.491 18.987-18.944v-75.861zM605.739 445.525c-34.603-25.557-54.144-41.259-54.144-66.773v-25.6h-75.861v25.6c0 64.981 47.104 99.84 84.864 127.787 39.808 29.44 64.213 49.493 64.085 88.533-0.213 53.419-60.203 82.091-118.528 81.152-61.227-0.085-132.651-30.165-132.651-114.517h-75.819c0 130.56 107.989 190.165 208.341 190.336 0.171 0 0.299 0 0.427 0 96.299 0 193.749-53.76 194.176-156.672 0.213-79.488-54.699-120.149-94.891-149.845z" />
<glyph unicode="&#xe62d;" d="M512 960c-282.837 0-512-229.163-512-512s229.163-512 512-512 512 229.163 512 512-229.163 512-512 512zM512 214.741c-59.904 59.904-260.48 140.331-260.48 268.843 0 151.339 165.419 223.915 260.48 51.669 78.848 176.768 260.437 101.76 260.437-51.669 0-128.512-200.107-208.427-260.437-268.843z" />
<glyph unicode="&#xe62e;" d="M853.333 960h-682.667c-93.824 0-170.667-76.843-170.667-170.667v-682.667c0-93.909 76.843-170.667 170.667-170.667h682.667c93.909 0 170.667 76.757 170.667 170.667v682.667c0 93.824-76.757 170.667-170.667 170.667zM783.147 553.515l-325.675-325.589c-9.344-9.259-18.688-7.68-26.411 0.085l-171.179 171.349c-5.589 5.333-5.419 14.763 2.091 22.4l80.981 81.408c7.936 7.851 14.165 10.923 23.851 1.067l77.568-77.312 229.76 229.675c6.101 6.101 17.749 6.741 25.088-0.683l81.067-79.829c7.552-7.509 8.96-16.427 2.859-22.571z" />
<glyph unicode="&#xe62f;" d="M927.957 874.667h-831.957c-52.821 0-96-44.331-96-98.475v-656.427c0-54.101 43.179-98.432 96-98.432h831.957c52.779 0 96.043 44.331 96.043 98.475v656.384c0 54.144-43.264 98.475-96.043 98.475zM398.72 441.472l-278.229-216.277v514.475l278.229-298.197zM176.341 752.811h671.189l-335.573-267.819-335.616 267.819zM409.344 429.867l102.613-113.109 102.699 113.109 210.603-286.635h-626.517l210.603 286.635zM625.237 441.472l278.272 298.197v-535.467l-278.272 237.269z" />
<glyph unicode="&#xe630;" d="M682.667 448.085c0-94.251-76.373-170.752-170.667-170.752-94.251 0-170.667 76.501-170.667 170.752 0 94.165 76.416 170.581 170.667 170.581 94.293 0 170.667-76.416 170.667-170.581z" />
<glyph unicode="&#xe631;" d="M853.333 448c0-188.513-152.82-341.333-341.333-341.333s-341.333 152.82-341.333 341.333c0 188.513 152.82 341.333 341.333 341.333 188.513 0 341.333-152.82 341.333-341.333z" />
<glyph unicode="&#xe632;" d="M512 917.333c282.752 0 512-182.187 512-406.955s-229.248-406.997-512-406.997c-27.221 0-53.845 1.749-79.829 4.949-109.909-107.605-241.237-126.805-368.171-129.664v26.325c68.523 32.768 128 92.629 128 161.024 0 9.515-0.768 18.901-2.176 28.075-115.797 74.667-189.824 188.587-189.824 316.288 0 224.768 229.248 406.955 512 406.955z" />
<glyph unicode="&#xe633;" d="M938.624 945.451l-426.624-426.581-426.581 426.581c-18.816 18.859-48.768 19.413-66.859 1.28l-5.333-5.291c-18.091-18.133-17.536-48 1.323-66.816l426.624-426.624-426.624-426.624c-18.816-18.816-19.413-48.683-1.323-66.816l5.333-5.291c18.133-18.091 48.043-17.536 66.859 1.28l426.581 426.581 426.624-426.581c18.816-18.816 48.725-19.456 66.816-1.323l5.291 5.333c18.176 18.133 17.579 48-1.195 66.816l-426.667 426.624 426.624 426.624c18.816 18.816 19.371 48.768 1.237 66.816l-5.291 5.333c-18.091 18.133-48 17.579-66.816-1.323z" />
<glyph unicode="&#xe634;" d="M512 960c-282.837 0-512-229.163-512-512s229.163-512 512-512 512 229.163 512 512-229.163 512-512 512zM731.904 320.555c7.595-7.637 7.936-17.493 0.768-24.533l-68.48-69.035c-7.509-7.381-18.219-7.211-23.936-1.621l-128.853 129.28-127.701-128.256c-7.040-6.997-15.957-8.533-23.723-0.64l-69.163 69.504c-6.571 6.784-8.917 16.256-0.768 24.491l128.085 128.555-128.853 129.365c-6.528 6.571-6.613 15.403 0.725 22.997l68.693 68.864c8.363 8.405 18.219 7.552 25.387 0.341l127.317-127.915 126.336 126.805c9.429 9.557 21.163 6.101 27.733-0.597l69.931-70.229c6.315-6.357 5.333-12.971-2.773-21.248l-127.872-128.427 127.147-127.701z" />
</font>
</defs>
</svg>
